<svg width="151" height="18" viewBox="0 0 151 18" fill="none" xmlns="http://www.w3.org/2000/svg">
<path d="M7.98867 14.7774C8.31296 14.7774 8.38825 14.9777 8.48814 15.2782L8.963 16.7806C9.01222 16.9563 9.11212 17.0303 9.26268 17.0303H9.46247C9.61159 17.0303 9.71149 16.9548 9.76216 16.7806L10.237 15.2782C10.3369 14.9777 10.3615 14.7527 10.9855 14.7527C12.384 14.7527 13.7058 14.5524 14.7048 13.5769C15.1796 13.1007 15.7529 12.9266 16.3031 13.3011L16.7779 13.6262C17.4526 14.0762 17.6524 14.9284 17.1022 15.5032C15.7037 16.9301 13.7319 17.7808 11.485 17.7808H7.7411C3.29507 17.7808 0 14.4769 0 10.0974V7.94462C0 3.5651 3.29507 0.26123 7.73821 0.26123H11.4821C13.729 0.26123 15.7008 1.11188 17.0993 2.53881C17.648 3.1151 17.4482 3.96575 16.775 4.41575L16.3002 4.74091C15.7515 5.11688 15.1767 4.94123 14.7019 4.4651C13.7029 3.48962 12.3797 3.28929 10.9826 3.28929L7.98722 3.26462C4.89194 3.23994 3.2444 5.16623 3.2444 7.94462V10.0974C3.2444 12.8757 4.89194 14.7774 7.98722 14.7774H7.98867Z" fill="white"/>
<path d="M21.9423 1.4617L21.9177 16.7051C21.9177 16.9301 22.0176 17.0302 22.242 17.0302H22.4418C22.617 17.0302 22.7169 16.9548 22.7661 16.8052L23.241 15.3028C23.3409 15.0023 23.3409 14.7773 23.9648 14.7773H30.6795C31.3281 14.7773 31.8029 15.2535 31.8029 15.9038V16.6543C31.8029 17.3046 31.3281 17.7807 30.6795 17.7807H19.7953C19.1467 17.7807 18.6719 17.3046 18.6719 16.6543L18.6965 1.4617C18.6965 0.785249 19.2206 0.259766 19.8952 0.259766H20.7436C21.4183 0.259766 21.9423 0.785249 21.9423 1.4617Z" fill="white"/>
<path d="M50.0742 7.94413V10.0969C50.0742 14.4764 46.7792 17.7803 42.336 17.7803H39.29C34.8468 17.7803 31.5518 14.4764 31.5518 10.0969V7.94413C31.5518 3.56461 34.8468 0.260742 39.29 0.260742H42.336C46.7792 0.260742 50.0742 3.56461 50.0742 7.94413ZM39.29 14.7769H42.336C45.1823 14.7769 46.8298 13.0248 46.8298 10.0969V7.94413C46.8298 5.01623 45.1823 3.26413 42.336 3.26413H39.29C36.4437 3.26413 34.7962 5.01623 34.7962 7.94413V10.0969C34.7962 13.0248 36.4437 14.7769 39.29 14.7769Z" fill="white"/>
<path d="M59.56 14.7773H61.6071C64.4534 14.7773 66.1009 13.0252 66.1009 10.0973V1.4617C66.1009 0.785249 66.625 0.259766 67.2997 0.259766H68.148C68.8227 0.259766 69.3468 0.785249 69.3468 1.4617V10.0973C69.3468 14.4769 66.0517 17.7807 61.6086 17.7807H59.5615C55.1183 17.7807 51.8232 14.4769 51.8232 10.0973V1.4617C51.8232 0.785249 52.3473 0.259766 53.022 0.259766H53.8704C54.545 0.259766 55.0691 0.785249 55.0691 1.4617V10.0973C55.0691 13.0252 56.7166 14.7773 59.5629 14.7773H59.56Z" fill="white"/>
<path d="M72.6404 0.260742H80.4032C84.7971 0.260742 88.1921 3.56461 88.1921 7.69445V10.348C88.1921 14.4778 84.8478 17.7817 80.4032 17.7817H72.6404C71.792 17.7817 71.0928 17.0806 71.0928 16.23V1.81252C71.0928 0.961871 71.792 0.260742 72.6404 0.260742ZM74.6629 14.7784H80.4047C83.251 14.7784 84.8985 13.0262 84.8985 10.348V7.69445C84.8985 5.01623 83.251 3.26413 80.4047 3.26413H74.6629C74.4385 3.26413 74.3386 3.36429 74.3386 3.58929V14.4517C74.3386 14.6767 74.4385 14.7769 74.6629 14.7769V14.7784Z" fill="white"/>
<path d="M88.0669 2.13768V1.38719C88.0669 0.736871 88.5417 0.260742 89.1903 0.260742H102.67C103.319 0.260742 103.794 0.736871 103.794 1.38719V2.13768C103.794 2.788 103.319 3.26413 102.67 3.26413H97.5525L97.5279 16.5798C97.5279 17.2563 97.0038 17.7817 96.3292 17.7817H95.4808C94.8061 17.7817 94.2821 17.2563 94.2821 16.5798L94.3067 3.26413H89.1889C88.5403 3.26413 88.0654 2.788 88.0654 2.13768H88.0669Z" fill="white"/>
<path d="M103.667 13.3766V11.5998C103.667 8.94625 105.639 7.22028 108.41 7.22028H115.824C116.048 7.22028 116.148 7.12012 116.148 6.89512V5.1677C116.148 3.79157 115.624 3.26609 114.251 3.26609H106.089C105.44 3.26609 104.966 2.78996 104.966 2.13964V1.38915C104.966 0.738824 105.44 0.262695 106.089 0.262695H114.251C117.722 0.262695 119.394 1.99012 119.394 5.41883V16.229C119.394 17.0796 118.695 17.7808 117.846 17.7808H108.361C105.64 17.7808 103.667 16.0533 103.667 13.3751V13.3766ZM108.61 14.7788H115.824C116.048 14.7788 116.148 14.6787 116.148 14.4537V8.29593C116.148 8.07093 116.048 7.97077 115.824 7.97077H115.624C115.449 7.97077 115.349 8.04625 115.3 8.19577L114.825 9.69818C114.725 9.99867 114.725 10.2237 114.101 10.2237H108.659C107.486 10.2237 106.911 10.649 106.911 11.8509V13.1269C106.911 14.3535 107.486 14.7788 108.608 14.7788H108.61Z" fill="white"/>
<path d="M124.412 1.4617L124.388 16.7051C124.388 16.9301 124.487 17.0302 124.712 17.0302H124.912C125.087 17.0302 125.187 16.9548 125.236 16.8052L125.711 15.3028C125.811 15.0023 125.811 14.7773 126.435 14.7773H133.149C133.798 14.7773 134.273 15.2535 134.273 15.9038V16.6543C134.273 17.3046 133.798 17.7807 133.149 17.7807H122.265C121.617 17.7807 121.142 17.3046 121.142 16.6543L121.166 1.4617C121.166 0.785249 121.69 0.259766 122.365 0.259766H123.213C123.888 0.259766 124.412 0.785249 124.412 1.4617Z" fill="white"/>
<path d="M136.718 0.261121H137.566C138.241 0.261121 138.765 0.786605 138.765 1.46305V7.39434C138.765 7.51918 138.865 7.61934 138.99 7.61934L140.762 7.64402C140.937 7.64402 141.11 7.56854 141.21 7.4437L147.276 0.561605C147.725 0.036121 148.475 -0.0146854 149.024 0.461444L149.448 0.837412C149.972 1.31354 149.997 2.03934 149.523 2.56483L143.881 8.89676L150.521 15.1285C151.045 15.6293 151.096 16.4045 150.596 16.9561L150.121 17.4816C149.622 18.0318 148.873 18.0579 148.325 17.5324L141.16 10.7751C141.06 10.675 140.911 10.6256 140.76 10.6256H138.988C138.864 10.6256 138.764 10.7258 138.764 10.8506V16.5831C138.764 17.2595 138.24 17.785 137.565 17.785H136.717C136.042 17.785 135.518 17.2595 135.518 16.5831V1.4616C135.518 0.785154 136.042 0.25967 136.717 0.25967L136.718 0.261121Z" fill="white"/>
</svg>
